HIERARCHY
ROOT Hips
{
	OFFSET 0.000000 0.000000 0.000000 
	CHANNELS 6 Xposition Yposition Zposition Zrotation Yrotation Xrotation
	JOINT LeftUpLeg
	{
		OFFSET 1.363060 -1.794630 0.839290 
		CHANNELS 3 Zrotation Yrotation Xrotation
		JOINT LeftLeg
		{
			OFFSET 2.448110 -6.726130 0.000000 
			CHANNELS 3 Zrotation Yrotation Xrotation
			JOINT LeftFoot
			{
				OFFSET 2.562200 -7.039590 0.000000 
				CHANNELS 3 Zrotation Yrotation Xrotation
				JOINT LeftToeBase
				{
					OFFSET 0.157640 -0.433110 2.322550 
					CHANNELS 3 Zrotation Yrotation Xrotation
					End Site
					{
						OFFSET 0.000000 0.000000 0.000000 
					}
				}
			}
		}
	}
	JOINT RightUpLeg
	{
		OFFSET -1.305520 -1.794630 0.839290 
		CHANNELS 3 Zrotation Yrotation Xrotation
		JOINT RightLeg
		{
			OFFSET -2.542530 -6.985550 0.000000 
			CHANNELS 3 Zrotation Yrotation Xrotation
			JOINT RightFoot
			{
				OFFSET -2.568260 -7.056230 0.000000 
				CHANNELS 3 Zrotation Yrotation Xrotation
				JOINT RightToeBase
				{
					OFFSET -0.164730 -0.452590 2.363150 
					CHANNELS 3 Zrotation Yrotation Xrotation
					End Site
					{
						OFFSET 0.000000 0.000000 0.000000 
					}
				}
			}
		}
	}
	JOINT Spine
	{
		OFFSET 0.028270 2.035590 -0.193380 
		CHANNELS 3 Zrotation Yrotation Xrotation
		JOINT Spine1
		{
			OFFSET 0.056720 2.048850 -0.042750 
			CHANNELS 3 Zrotation Yrotation Xrotation
			JOINT Neck1
			{
				OFFSET -0.054170 1.746240 0.172020 
				CHANNELS 3 Zrotation Yrotation Xrotation
				JOINT Head
				{
					OFFSET 0.104070 1.761360 -0.123970 
					CHANNELS 3 Zrotation Yrotation Xrotation
					End Site
					{
						OFFSET 0.000000 0.000000 0.000000 
					}
				}
			}
			JOINT LeftArm
			{
				OFFSET 3.362410 1.200890 -0.311210 
				CHANNELS 3 Zrotation Yrotation Xrotation
				JOINT LeftForeArm
				{
					OFFSET 4.983000 -0.000000 -0.000000 
					CHANNELS 3 Zrotation Yrotation Xrotation
					JOINT LeftHand
					{
						OFFSET 3.483560 -0.000000 -0.000000 
						CHANNELS 3 Zrotation Yrotation Xrotation
						JOINT LeftHandIndex1
						{
							OFFSET 0.715260 -0.000000 -0.000000 
							CHANNELS 3 Zrotation Yrotation Xrotation
							End Site
							{
								OFFSET 0.000000 0.000000 0.000000 
							}
						}
					}
				}
			}
			JOINT RightArm
			{
				OFFSET -3.136600 1.374050 -0.404650 
				CHANNELS 3 Zrotation Yrotation Xrotation
				JOINT RightForeArm
				{
					OFFSET -5.241900 -0.000000 -0.000000 
					CHANNELS 3 Zrotation Yrotation Xrotation
					JOINT RightHand
					{
						OFFSET -3.444170 -0.000000 -0.000000 
						CHANNELS 3 Zrotation Yrotation Xrotation
						JOINT RightHandIndex1
						{
							OFFSET -0.622530 -0.000000 -0.000000 
							CHANNELS 3 Zrotation Yrotation Xrotation
							End Site
							{
								OFFSET 0.000000 0.000000 0.000000 
							}
						}
					}
				}
			}
		}
	}
}
MOTION
Frames: 10
Frame Time: 0.041667
33.407544 17.186078 2.923210 -75.564015 -78.894657 80.880635 -8.763680 -19.661201 -25.451694 -10.560701 7.392325 6.524687 -6.921798 22.712082 -7.366097 11.473000 -18.158900 -64.308300 56.248637 10.901936 18.677469 15.623934 1.195943 0.918780 -2.790883 -9.061534 -33.780605 -0.006400 0.515600 -1.416700 1.818813 2.346885 -4.704172 1.614438 0.376855 -13.390061 1.634690 -1.968989 14.822089 -1.276400 -1.609700 14.433700 -93.750629 17.591631 12.439085 18.852297 -32.943470 -7.195770 -0.935060 1.835811 5.626606 -7.125000 0.000000 0.000000 67.607438 -1.580863 47.040645 -24.049662 37.389535 -7.656626 1.457042 -1.458243 -13.193788 7.125000 0.000000 0.000000 
33.094124 17.143075 2.965990 -77.955711 -78.518600 83.279178 -6.762236 -23.624736 -24.683215 -10.587894 6.493426 3.759742 -7.861722 25.303086 -11.271464 11.309700 -18.083300 -63.783100 56.910152 10.450359 20.099135 15.762678 1.479927 0.667037 -2.424307 -9.941331 -31.740095 -0.170700 2.661300 -7.337000 1.808985 2.493161 -4.720577 1.380524 0.395000 -13.401147 1.522603 -1.766630 15.064983 -1.325200 -1.544700 14.643600 -94.206632 17.988247 11.164781 18.141689 -32.277440 -6.917597 -0.881987 1.863007 6.041950 -7.125000 0.000000 0.000000 67.692151 -1.206257 47.745710 -24.211880 37.527879 -7.682388 1.439484 -1.483087 -13.532494 7.125000 0.000000 0.000000 
32.770427 17.096721 3.010222 -80.351287 -78.230268 85.770122 -4.988530 -27.329309 -24.062209 -10.513717 5.854306 1.610427 -8.531372 27.360669 -14.915268 11.322600 -18.089400 -63.824900 57.218391 9.796386 21.181917 15.823207 1.563756 0.786158 -2.259465 -9.857276 -30.299762 -0.358700 3.847300 -10.647600 1.797190 2.619893 -4.755210 1.193800 0.417993 -13.436077 1.442657 -1.545811 15.298823 -1.361900 -1.463400 14.846400 -94.735116 18.404652 9.582105 17.305522 -31.504055 -6.623928 -0.840357 1.884804 6.709753 -7.125000 0.000000 0.000000 67.943778 -0.894019 48.415118 -24.197142 37.565175 -7.702736 1.382752 -1.543437 -13.486363 7.125000 0.000000 0.000000 
32.433662 17.049138 3.053113 -82.954839 -77.919690 88.465706 -5.364815 -27.053557 -24.055136 -10.548761 5.915709 1.776659 -8.857594 28.493589 -14.096081 11.631200 -18.230400 -64.814900 57.214088 8.994273 21.921608 15.713911 1.367863 1.428454 -3.034652 -6.557155 -32.913791 -0.008100 0.580900 -1.596100 1.801366 2.743880 -4.804825 1.088407 0.455704 -13.471245 1.419026 -1.156341 15.520243 -1.349600 -1.306400 15.030600 -95.139378 19.007304 8.311135 16.508097 -30.795023 -6.378751 -0.794609 1.894847 7.166917 -7.125000 0.000000 0.000000 68.228725 -0.733110 49.098132 -24.305286 37.671641 -7.708773 1.392703 -1.546559 -13.618704 7.125000 0.000000 0.000000 
32.079584 17.005464 3.098127 -85.660425 -77.550513 91.197513 -6.271935 -25.781936 -24.031390 -10.565461 6.174195 2.737204 -8.382815 27.266038 -11.186311 11.582800 -18.208700 -64.660200 57.239121 8.204845 22.688761 15.664464 1.069292 2.303687 -3.345860 -5.056254 -33.539141 -0.000800 0.181300 -0.498200 1.804149 2.876482 -4.841183 1.021073 0.501542 -13.402530 1.425289 -1.128498 15.816780 -1.352900 -1.296800 15.322800 -95.588896 19.436591 6.739584 15.596610 -29.943418 -6.093156 -0.731257 1.913994 8.186491 -7.125000 0.000000 0.000000 68.508282 -0.722195 49.700193 -24.549965 37.874565 -7.722790 1.424274 -1.532076 -13.774748 7.125000 0.000000 0.000000 
31.713889 16.968493 3.147497 -88.217657 -77.309307 93.786158 -7.138462 -24.803898 -23.966765 -10.546766 6.610955 4.031450 -7.620167 25.459487 -7.542218 11.282500 -18.070600 -63.695600 57.113905 7.586886 23.428276 15.620769 0.767573 3.213616 -3.364757 -4.394819 -32.969103 -0.011900 0.703800 -1.934100 1.801840 2.989423 -4.872449 1.001812 0.555997 -13.303691 1.467752 -1.004145 16.051220 -1.320800 -1.243000 15.555100 -96.019651 19.822600 5.140458 14.673460 -29.048520 -5.788685 -0.674662 1.937647 9.391096 -7.125000 0.000000 0.000000 68.862027 -0.855790 50.163983 -24.825746 38.169063 -7.843234 1.456744 -1.516170 -13.724877 7.125000 0.000000 0.000000 
31.339483 16.940457 3.199883 -90.231552 -77.263162 95.834387 -7.791724 -24.389036 -24.074005 -10.530272 7.235367 5.444070 -7.116301 24.584136 -4.634613 10.918000 -17.894700 -62.515000 56.613291 6.834069 23.886360 15.487935 0.321645 4.417999 -3.257447 -3.359806 -31.663023 -0.072500 1.736900 -4.779100 1.799553 3.041345 -4.922329 1.052034 0.597034 -13.292191 1.521578 -0.880372 16.374528 -1.288300 -1.191000 15.847000 -96.332596 20.243689 3.490757 13.647703 -28.062078 -5.507659 -0.599814 1.946026 10.480045 -7.125000 0.000000 0.000000 69.314832 -1.280908 50.554257 -25.267865 38.625828 -8.059779 1.519584 -1.472264 -13.706633 7.125000 0.000000 0.000000 
30.956140 16.923814 3.252492 -91.318123 -77.451308 96.869756 -8.717348 -23.874819 -24.348157 -10.572503 8.132847 7.358833 -7.310957 25.505020 -3.954047 11.151400 -18.008400 -63.272100 55.685817 5.757251 24.069469 15.306936 -0.305722 6.022364 -2.876011 -3.605871 -29.322572 -0.759000 5.564000 -15.524500 1.783844 2.992754 -4.974286 1.116342 0.596066 -13.306199 1.618938 -0.837477 16.692960 -1.226900 -1.170500 16.145900 -96.617195 20.531904 1.507704 12.603194 -27.033164 -5.274636 -0.498231 1.941067 11.790294 -7.125000 0.000000 0.000000 69.858207 -1.922478 50.768824 -25.713719 39.050644 -8.220452 1.533985 -1.477422 -13.727519 7.125000 0.000000 0.000000 
30.567324 16.922697 3.301080 -91.545309 -77.921207 96.989833 -10.177194 -22.795543 -24.687661 -10.595817 9.169090 9.854215 -6.763741 24.065689 -3.655325 10.838000 -17.854900 -62.254300 54.433309 4.793968 24.146723 14.925450 -1.055292 7.938379 -3.007765 -1.594783 -28.918540 -0.431300 4.214400 -11.680500 1.759394 2.833183 -5.011592 1.254368 0.560578 -13.262278 1.757680 -0.861444 17.105591 -1.146000 -1.174600 16.573500 -96.895560 20.677525 -0.437430 11.803904 -26.149552 -5.028675 -0.430494 1.963536 13.208144 -7.125000 0.000000 0.000000 70.444913 -2.555140 50.767912 -26.056491 39.377178 -8.328347 1.496030 -1.532677 -13.863255 7.125000 0.000000 0.000000 
30.173594 16.940345 3.346652 -90.935327 -78.603899 96.249228 -12.033724 -21.454564 -24.826713 -10.580718 10.006161 12.135996 -6.042340 22.208765 -2.785869 10.641400 -17.755100 -61.611600 52.761031 3.634131 23.903881 14.405317 -1.970429 10.250978 -3.087134 -0.058263 -28.335481 -0.277200 3.386300 -9.356100 1.722669 2.597485 -5.045330 1.408048 0.498990 -13.207633 1.876572 -0.956116 17.507210 -1.090900 -1.206100 17.007800 -97.030088 20.731444 -2.060938 11.120433 -25.331654 -4.771322 -0.407759 1.991703 14.531434 -7.125000 0.000000 0.000000 71.089611 -3.294434 50.618999 -26.420015 39.753234 -8.488454 1.488177 -1.560653 -14.072663 7.125000 0.000000 0.000000 
